<?xml version="1.0" standalone="no"?>
<!DOCTYPE svg PUBLIC "-//W3C//DTD SVG 20010904//EN"
 "http://www.w3.org/TR/2001/REC-SVG-20010904/DTD/svg10.dtd">
<svg version="1.0" xmlns="http://www.w3.org/2000/svg"
 width="4501.000000pt" height="4500.000000pt" viewBox="0 0 4501.000000 4500.000000"
 preserveAspectRatio="xMidYMid meet">

<g transform="translate(0.000000,4500.000000) scale(0.100000,-0.100000)"
fill="#000000" stroke="none">
<path d="M25977 33696 c-63 -23 -114 -63 -144 -113 l-28 -48 -6 -7360 c-3
-4048 -8 -7373 -12 -7390 -3 -16 -11 -75 -17 -130 -137 -1252 -862 -2435
-1925 -3139 -193 -128 -275 -176 -461 -269 -860 -431 -1834 -538 -2790 -307
-807 195 -1555 638 -2112 1252 -136 150 -223 218 -329 258 -191 72 -366 63
-548 -27 -65 -32 -129 -93 -936 -901 -660 -660 -874 -880 -897 -922 -122 -219
-113 -485 21 -687 55 -82 366 -405 567 -588 1229 -1119 2735 -1804 4365 -1984
327 -36 496 -45 860 -45 482 0 820 26 1265 100 1386 228 2681 829 3755 1743
901 766 1620 1737 2090 2821 333 770 525 1538 612 2445 16 168 17 680 21 7620
2 5373 0 7454 -8 7491 -27 128 -161 212 -294 184 -44 -9 -76 -27 -166 -94
-293 -218 -581 -344 -935 -407 -111 -20 -164 -23 -360 -23 -196 0 -249 3 -360
23 -364 65 -662 197 -956 423 -107 83 -186 104 -272 74z"/>
<path d="M21155 22704 c-16 -2 -73 -9 -125 -15 -142 -16 -368 -64 -519 -109
-1084 -328 -1890 -1202 -2132 -2310 -64 -293 -86 -695 -55 -990 75 -711 366
-1344 845 -1843 709 -736 1716 -1072 2748 -916 903 137 1707 674 2178 1454
648 1076 580 2493 -167 3495 -494 661 -1201 1081 -2043 1212 -103 16 -190 21
-415 23 -157 2 -298 1 -315 -1z"/>
</g>
</svg>
